# xmcd
#
# Track frame offsets:
#	150
#	16659
#	34248
#	58054
#	83503
#
# Disc length: 2101 seconds
#
# Revision: 0
# Processed by: cddbd v1.5.2PL0 Copyright (c) Steve Scherf et al.
# Submitted via: audiograbber 1.83.01
#
DISCID=2f083305
DTITLE=Cascada - What Hurts The Most
DYEAR=2007
DGENRE=Dance
TTITLE0=What Hurts The Most (Radio Version)
TTITLE1=What Hurts The Most (Yanou Candlight Version)
TTITLE2=What Hurts The Most (Original Version)
TTITLE3=he's all That (Radio Version)
TTITLE4=Video
EXTD=
EXTT0=
EXTT1=
EXTT2=
EXTT3=
EXTT4=
PLAYORDER=
